<?xml version="1.0" encoding="UTF-8"?>
<svg id="Icon" xmlns="http://www.w3.org/2000/svg" xmlns:xlink="http://www.w3.org/1999/xlink" version="1.1" viewBox="0 0 800 800">
  <!-- Generator: Adobe Illustrator 29.3.0, SVG Export Plug-In . SVG Version: 2.1.0 Build 146)  -->
  <path d="M358.7,290c4,7.7,1.3,17-6.3,21.3-7.7,4-17.3,1.3-21.3-6.3-4.3-7.7-1.3-17.3,6.3-21.3,7.3-4.3,17-1.3,21.3,6.3q-.3,0,0,0h0ZM281,412.7c-4.3,2.3-6,8-3.7,12.7,2.3,4.3,8,6,12.3,3.7h.3c4.3-2.3,6.3-7.7,4-12.3v-.3c-3-4.3-8.7-6-13-3.7ZM279.3,375c-5.3,3-7,9.3-4.3,14.7,3,5.3,9.3,7.3,14.7,4.3s7.3-9.3,4.3-14.7c-2.7-5.3-9.3-7.3-14.7-4.3h0ZM289.3,338.7c-6,3.3-8.3,10.7-5,16.7s10.7,8.3,16.7,5,8.3-10.7,5-16.7h0c-3.3-6-11-8.3-16.7-5ZM309,307.3c-6.7,3.3-9,12-5.7,18.7v.3c3.7,6.7,12,9.3,18.7,5.7,6.7-3.7,9.3-12,5.7-18.7h0c-3.3-7-11.7-9.7-18.7-6q.3,0,0,0h0ZM294,448.7c-3.7,2-5,6.7-3,10.3h0c2,3.7,6.7,5,10.3,3,3.7-2,5-6.7,3-10.7-2-3.3-6.7-4.7-10.3-2.7ZM472.3,320c2.3,4.3,8,6,12.7,3.7,4.3-2.3,6-8,3.7-12.7-2.3-4.3-8-6-12.3-3.7h0c-4.7,2.3-6.3,8-4,12.7h0ZM441,300c2.7,5.3,9.3,7,14.7,4.3,5.3-3,7.3-9.3,4.3-14.7-2.7-5.3-9.3-7.3-14.7-4.3-5,2.7-7,9.3-4.3,14.7h0ZM404.7,290.3c3,6,10.7,8,16.3,5h0c6-3.3,8.3-10.7,5-16.7h0c-3.3-6-10.7-8.3-16.3-5h0c-6,3-8,10.7-5,16.7h0ZM367,291.7c3.7,6.7,12,9.3,18.7,5.7h0c6.7-3.7,9.3-12,5.7-19-3.7-6.7-12.3-9-19-5-6.3,4-8.7,12-5.3,18.3ZM496,348.3c2,3.7,6.7,5,10.3,3,3.7-2,5-6.3,3.3-10.3h0c-2-3.7-6.7-5.3-10.3-3.3-4,2-5.7,7-3.3,10.7h0ZM469.3,495c-4-7.7-13.3-10.7-21-6.7h-.3c-7.7,4-10.3,13.3-6.3,21v.3c4,7.7,13.7,10.3,21.3,6.3,7.7-4,10.3-13.3,6.3-21h0ZM327.7,480c-2.3-4.3-8-6-12.3-3.7-4.3,2.3-6,8-3.7,12.3h0c2.3,4.3,7.7,6,12.3,3.7h.3c4-2.3,5.7-8,3.3-12.3h0ZM359,499.7c-3-5.3-9.3-7-14.7-4.3s-7.3,9-4.3,14.3v.3c2.7,5.3,9.3,7.3,14.7,4.3,5.3-2.7,7.3-9.3,4.3-14.7ZM395.3,509.7c-3-6-10.7-8-16.7-5-6,3.3-8,10.7-5,16.7,3.3,6,10.7,8.3,16.7,5s8.3-10.7,5-16.7c.3,0,0,0,0,0h0ZM433.3,508c-3.7-6.7-12-9.3-18.7-5.7-6.7,3.7-9,12-5.3,18.7,3.3,6.7,11.7,9.3,18.3,5.7,0,0,.3,0,.3-.3,6.3-3,8.7-11.7,5.3-18.3ZM519,387.3c4.7-2.7,6.3-8.3,4-12.7s-8-6-12.3-3.7h0c-4.3,2.3-6.3,8-4,12.3v.3c2.3,4,8,5.7,12.3,3.7h0ZM520.7,425c5.3-3,7-9.3,4.3-14.7s-9.3-7.3-14.3-4.3h0c-5.3,3-7.3,9.3-4.3,14.7,2.7,5,9.3,7,14.3,4.3h0ZM511,461.3c6-3.3,8.3-10.7,5-16.7s-10.7-8.3-16.7-5-8.3,10.7-5,16.7c3.3,5.7,10.7,8,16.7,5h0ZM491,492.3c6.7-3.3,9.3-12,5.7-18.7-3.7-6.7-12-9.3-18.7-5.7-6.7,3.7-9.3,12-5.7,18.7h0c3.7,7,11.7,9.3,18.7,5.7q0,.3,0,0h0ZM464.3,252.3c-3,10.7-14.3,16.7-25,13.7h0c-10.7-3-16.7-14.3-13.7-25v-.3c3.3-10.7,14.3-16.7,25-13.7,11,3.7,17,14.7,13.7,25.3ZM271,300c-5.3-1.3-11,1.7-12.7,7-1.3,5.3,2,10.7,7.3,12,5,1.3,10.3-1.7,12-6.7s-1.7-10.7-6.7-12.3h0ZM306,261.7c-6.7-2-13.3,1.7-15.3,8.3h0c-2,6.3,1.7,13.3,8.3,15.3h0c6.7,2,13.3-2,15.3-8.3,1.7-6.7-2-13.3-8.3-15.3h0ZM350.7,234.3c-8.3-2.3-17,2.3-19.3,10.7s2.3,17,10.7,19.3,17-2.3,19.3-10.3h0c2.3-8.3-2.3-17-10.7-19.7h0ZM400.3,223.3c-9.3-2.7-19,2.3-22,11.7h0c-2.7,9.3,2.7,19,11.7,21.7h0c9.3,2.7,19-2.7,21.7-12,3.3-8.7-1.7-18.7-11.3-21.3q.3,0,0,0h0ZM248.7,347.7c-4-1-8,1-9,5h0c-1.3,4,1,8,5,9.3h0c4,1,8-1,9.3-5,1-4-1.3-8-5.3-9.3h0ZM550.3,392.7c-1.7,5.3,1.3,10.7,6.7,12.3h0c5.3,1.7,10.7-1.3,12.3-6.7,1.7-5.3-1.3-10.7-6.7-12.3-5.3-1.7-10.7,1.3-12.3,6.7ZM538.7,342.7c-2,6.7,1.7,13.3,8.3,15.3h0c6.7,2,13.3-1.7,15.3-8.3s-1.7-13.3-8.3-15.3c-6.3-1.7-13.3,2-15.3,8.3h0ZM511.7,298c-2.3,8.3,2.3,17,10.7,19.3s17-2.3,19.3-10.7-2.3-17-10.3-19.3h0c-8.7-2.3-17.3,2.3-19.7,10.7h0ZM473.3,263c-2.7,9.3,2.7,19,12,21.7s19-2.7,21.7-12h0c2.7-9.3-2.7-19-11.7-21.7h0c-9.3-2.7-19,2.7-22,12ZM546.3,443c-1,4,1,8,5,9.3,4,1.3,8-1,9.3-5h0c1.3-4-1-8-5-9.3h0c-4-1.3-8.3,1-9.3,5h0ZM374.3,559c3.3-10.7-3-22-13.7-25h0c-10.7-3-22,3-25,13.7h0c-3.3,10.7,3,22,13.7,25h0c10.7,3.3,22-3,25-13.7ZM249.7,407.3c1.7-5.3-1.3-10.7-6.7-12.3s-10.7,1.7-12.3,6.7c-1.7,5.3,1.3,10.7,6.7,12.3h0c5.3,1.7,10.7-1.3,12.3-6.7h0ZM261.3,457c2-6.3-1.7-13.3-8.3-15h0c-6.3-2-13.3,1.7-15.3,8v.3c-2,6.7,2,13.3,8.3,15.3,6.7,1.7,13.3-2,15.3-8.7h0ZM288.3,502c2.3-8.3-2.3-17-10.7-19.7-8.3-2.3-17,2.3-19.3,10.7-2.3,8.3,2.3,17,10.3,19.3h0c8.7,2.7,17.3-2,19.7-10.3h0ZM326.7,537c2.7-9.3-2.7-19-12-22-9.3-2.7-19,2.7-21.7,11.7v.3c-2.7,9.3,2.7,19,12,21.7h0c9,3,19-2.3,21.7-11.7ZM529.3,500c5.3,1.7,11-1.3,12.3-6.7,1.7-5.3-1.3-10.7-6.7-12.3s-10.7,1.7-12.3,6.7c-1.7,5,1.3,10.7,6.7,12.3ZM494.3,538.3c6.3,2,13.3-1.7,15.3-8.3,2-6.3-1.7-13.3-8-15.3h0c-6.7-2-13.3,1.7-15.3,8.3-2.3,6.7,1.3,13.3,8,15.3ZM449.3,565.7c8.3,2.3,17-2.3,19.3-10.7h0c2.3-8.3-2.3-17-10.7-19.3h0c-8.3-2.3-17,2.3-19.3,10.7-2.3,8,2.3,16.7,10.7,19.3h0ZM399.7,576.7c9.3,2.7,19-2.3,21.7-11.7v-.3c2.7-9.3-2.7-19-12-22-9.3-2.7-19,2.7-22,12-2.3,9.7,3,19.3,12.3,22ZM565,262.7c-10,10.3-26.3,11-36.7,1-10.3-9.7-11-26-1-36.7h0c9.7-10.3,26-11,36.7-1.3h0c10.3,10,11,26.7,1,37h0ZM306.3,203.7c-5-4.7-13-4.7-18,.7-5,5-4.7,13,.3,18,5,4.7,13.3,4.7,18-.7,5-5,5-13-.3-18h0ZM371.3,179c-6.3-6-16.3-5.7-22.3.7s-5.7,16.3.7,22.3h0c6.3,6,16.3,5.7,22.3-.7,6-6.3,5.7-16.3-.7-22.3h0ZM440.7,174c-8-7.7-20.7-7.3-28.3.7-7.3,8.3-6.7,21,1.7,28.3,8,7,20,6.7,27.7-.7,7.7-8,7-20.7-1-28.3ZM506.7,191c-9-8.7-23.3-8.3-32,1h0c-8.7,9-8,23.3,1,32h0c9,8.7,23.3,8,32-1,8.3-9.3,8-23.7-1-32h0ZM251.3,247c-4-3.7-10-3.3-13.3.3-3.7,3.7-3.3,9.7.3,13.3h0c3.7,3.7,9.7,3.3,13.3-.3h0c3.7-3.7,3.7-9.7-.3-13.3ZM583.3,482.3c-5,5-4.7,13.3.7,18s13.3,4.3,18-1c4.7-5,4.3-13-.7-17.7-5-4.7-13-4.7-18,.7ZM600,416.3c-6,6.3-5.7,16.3.7,22.3s16.3,5.7,22.3-.7h0c6-6.3,5.7-16.3-.7-22.3h0c-6.7-6-16.3-5.7-22.3.7ZM594.7,346.7c-7.7,8-7.3,20.7.7,28.3h0c8,7.7,20.7,7.3,28.3-.7h0c7.3-8.3,6.7-21-1.3-28.3-7.7-7.7-20-7-27.7.7h0ZM570.7,282c-8.7,9-8,23.3,1,32s23.3,8,32-1c8.7-9,8-23.3-1-32h0c-9.3-8.3-23.7-8-32,1ZM548.3,539.7c-3.7,4-3.3,10,.3,13.3,3.7,3.7,9.7,3.3,13.3-.3h0c3.7-3.7,3.3-9.7-.3-13.3l-.3-.3c-3.3-3.3-9.3-3.3-13,.7,0-.3,0,0,0,0h0ZM272.7,573c9.7-10.7,9-27-1.3-36.7-10.3-9.7-26.7-9-36.3,1-9.7,10.7-8.7,27,2,36.7,10.3,9,26,8.7,35.7-1h0ZM216.7,317.7c5-5,4.7-13.3-.7-18-5-5-13-4.7-18,.3-5,5.3-4.7,13.3.7,18.3,5,4.7,13,4.3,18-.7h0ZM200.3,383.7c6-6.3,5.7-16.3-.7-22.3-6.7-5.7-16.3-5.3-22.3,1.3-5.7,6.3-5.3,15.7.7,21.7,6.3,6,16.3,5.7,22.3-.7h0ZM205.3,453.3c7.7-8,7.3-20.7-1-28.3-8-7.7-20.7-7.3-28.3,1-7.7,8-7.3,20.7,1,28.3,8,7.3,20.7,7,28.3-1ZM229.7,518c8.7-9,8-23.3-1-32s-23.3-8-31.7,1h0c-8.7,9-8.3,23.3.7,32h0c9,8.3,23.3,8,32-1h0ZM493.7,596.3c5,5,13.3,4.7,18-.7h0c4.7-5,4.7-13-.7-18h0c-5-5-13-4.7-18,.3h0c-4.7,5.3-4.3,13.3.7,18.3h0ZM429,621c6.3,6,16.3,5.7,22.3-.7s5.7-16.3-.7-22.3h0c-6.3-6-16.3-5.7-22.3.7-6,6.3-5.7,16.3.7,22.3ZM359.3,626c8,7.7,20.7,7.3,28.3-.7,7.7-8,7.3-20.7-.7-28.3h0c-8-7.7-20.7-7.3-28.3.7-8,8-7.3,20.7.7,28.3h0ZM293.7,609c9,8.7,23.3,8,31.7-1h0c8.7-9,8-23.3-1-32-9-8.7-23.3-8-32,1h0c-8.3,9.3-7.7,23.7,1.3,32h0ZM670.3,317.7c-16,7-34.3-.7-41.3-16.3-6.7-16,.7-34.7,16.3-41.3h0c16-6.7,34.3,1.3,41,17.3,6.3,15.3-.7,33.3-16,40.3ZM449.7,117.7c-2-9.3-11-15.3-20.3-13.7h0c-9.3,1.7-15.3,11-13.7,20.3h0c2.3,9.3,11.7,15,21,13,8.7-2,14.3-10.7,13-19.7ZM524,133.7c-3-11.3-14.3-18-25.3-15.3h0c-11.3,2.7-18,14.3-15.3,25.3h0c3,11.3,14.3,18,25.7,15,11.3-2.3,18-13.7,15-25h0ZM592.7,167c-4.3-13.7-19-21.3-32.7-17.3h0c-13.7,4.3-21.7,19-17.3,32.7h0c4.7,13.7,19.7,21,33.3,16.3,13.3-4.3,20.7-18.3,16.7-31.7h0ZM647.7,215.7c-5.7-15-22-22.7-37-17h0c-15,5.3-22.7,22-17,37h0c5.7,15,22,22.7,37,17,14.7-5.3,22.3-22,17-37h0ZM300.3,137c-2.7-6.3-10.3-9.3-16.7-6.7h0c-6.3,3-9.3,10.3-6.3,16.7,2.7,6.3,10.3,9.3,16.7,6.7h0c6.3-2.7,9.3-10.3,6.3-16.7h0ZM615.3,553.7c-7.7,5.7-9.3,16.7-3.7,24.3,5.7,7.3,16,9.3,23.7,4,7.7-5.7,9.7-16.3,4-24h0c-5.3-8-16.3-10-24-4.3h0ZM649.7,486c-10,6-13,19-7,29s19,13,29,7c.3,0,.3-.3.7-.3,9.7-6.3,12.3-19.3,6-29-6.3-9.7-19-12.7-28.7-6.7ZM666,409.7c-12.7,7-17,23-10,35.7,7,12.7,23,17,35.7,10h0c12.7-7,17-23,10-35.7h0c-7-12.3-23-17-35.7-10,.3,0,0,0,0,0h0ZM665,333.3c-14.3,7-20,24.3-13,38.7,7,14.3,24.3,20,38.7,13h0c14.3-7,20-24.3,13-38.7h0c-7-14-24.3-20-38.7-13h0ZM506.3,646.3c-6.3,2.7-9.3,10.3-6.7,16.7s10.3,9.3,16.7,6.7,9.3-10.3,6.7-16.7c-3-6.3-10.3-9.3-16.7-6.7ZM154.7,540c16-7,23.3-25.3,16.3-41.3-7-16-25.3-23.3-41.3-16.3h0c-16,6.7-23.3,25.3-16.3,41.3h0c6.7,16,25.3,23.3,41.3,16.3ZM184.7,246.3c8-5.3,9.7-16.3,4-24h0c-5.3-8-16-9.7-24-4.3h0c-7.7,5.7-9.7,16.3-4.3,24h0c5.7,8,16.7,10,24.3,4.3h0ZM150.3,314c9.7-6.3,12.7-19.3,6.3-29h0c-6-9.7-19-12.7-29-6.7s-12.7,19.3-6.3,29c6,10,19,13,29,6.7h0ZM134,390.3c12.7-6.7,17.7-22.7,11-35.3-6.7-12.7-22.7-17.7-35.3-11-.3.3-1,.3-1.3.7-12.7,7-17,23-10,35.7,7,12.3,23,17,35.7,10ZM135,466.7c14.3-7,20-24.3,13-38.7s-24.3-20-38.7-13h-.3c-14.3,7-20,24.3-13,38.7h0c7.3,14,24.7,20,39,13ZM350.3,682.3c2,9.3,11,15.7,20.3,13.7h0c9.3-2,15.3-11,13.7-20.3-2-9.3-11-15.3-20.3-13.7-9.3,2-15.3,11-13.7,20.3h0ZM276,666.3c2.7,11.3,14.3,18,25.3,15.3h0c11.3-3,18-14.3,15-25.7s-14.3-18-25.7-15c-10.7,2.7-17.7,14-14.7,25.3h0ZM207.3,633c4.3,13.7,18.7,21.3,32.7,17.3h.3c13.7-4.3,21.7-19,17.3-32.7h0c-4.3-13.7-19-21.7-33-17.3-14,4.3-21.7,19-17.3,32.7h0ZM152.7,584.3c5.3,15,22,22.7,37,17h.3c15-5.7,22-22.7,16.3-37.3-5.7-14.3-21.7-21.7-36.3-16.7-15.3,5.3-23,22-17.3,37ZM565.7,609.7c-5.7,4.7-6.3,13.3-1.7,19,4.7,5.3,12.7,6.3,18.3,2,6-4.3,7.3-13,2.7-19s-13-7.3-19-2.7c.3.3,0,.7-.3.7ZM438.7,664.3c-7.3,1-12.7,8-11.3,15.3,1,7.3,8,12.7,15.3,11.3h0c7.3-1,12.7-8,11.3-15.3h0c-1-7-7.7-12.3-15.3-11.3h0ZM372.7,120c-1-7.3-8-12.7-15.3-11.3h0c-7.3,1-12.7,8-11.3,15.3,1,7.3,8,12.7,15.3,11.3,7.3-1,12.7-7.7,11.3-15.3h0ZM236.3,171.3c-4.7-6-13-7-19-2.3-6,4.7-7,13.3-2.3,19,4.7,6,13.3,7,19,2.3,6-4.7,7-13.3,2.3-19h0ZM759.7,440.3c-22.3,0-40.3-18-40.3-40.3s18-40.3,40-40.3h.3c22.3,0,40.3,18,40.3,40h0c0,22.7-18,40.7-40.3,40.7h0ZM601.7,93c2.7-12-5-23.7-17-26.3h0c-12-2.7-23.7,5-26.3,17h0c-2.7,12,5,23.7,17,26.3,12,2.7,23.7-5,26.3-17ZM681,149.7c2.3-14.7-7.7-28.3-22.3-30.7h0c-14.7-2-28.3,8.3-30.3,23-2,14.3,7.7,27.7,22,30,14.7,2.7,28.3-7.3,30.7-22.3ZM784.7,308.7c1-20.3-14.7-37.7-35-39h0c-20.3-1-37.7,14.3-39,34.7h0c-1.3,20.3,14.3,38,34.7,39.3,20.3,1.3,38-14.3,39.3-34.7,0,.3,0,0,0-.3h0ZM416.3,40.3c0-9-7.3-16-16.3-16-9,.3-16,7.7-15.7,16.7.3,8.3,7,15.3,15.7,15.7,9-.3,16.3-7.3,16.3-16.3ZM575.3,690c-12,2.7-19.7,14.3-17,26.3s14.3,19.7,26.3,17,19.7-14.3,17-26.3-14.3-19.7-26.3-17h0ZM650.3,627.7c-14.7,2.3-25,16-22.7,30.7s16,25,30.7,22.7h.7c14.7-2.3,24.7-16.3,22-31-2.7-14.3-16.3-24.3-30.7-22.3ZM708,546.3c-18.3,2-31.7,18.3-30,37s18.3,31.7,37,30c18.3-2,31.7-18.3,30-36.7h0c-2-18.7-18.7-32-37-30.3ZM745.7,456c-20.3,1-36,18.7-35,39s18.3,36,38.7,35h.3c20.3-1,36-18.3,35-38.7h0c-1.3-20.7-18.7-36.3-39-35.3ZM400,743.7c-9,.3-16,7.7-15.7,16.7.3,8.7,7,15.7,15.7,15.7s16-7.3,16-16-7-16.3-16-16.3ZM40.3,440.3c22.3,0,40.3-18,40.3-40.3s-18-40.3-40-40.3h0c-22.7,0-40.7,18-40.7,40.3h0c0,22.3,18,40.3,40.3,40.3ZM224.7,110c12-2.3,19.7-14.3,17.3-26.3-2.7-12-14.3-19.7-26.3-17h0c-12.3,2.7-20,14.3-17.3,26.3s14.3,19.7,26.3,17ZM150,172.3c14.7-2.3,24.7-16.3,22.3-31-2.3-14.7-16.3-24.7-31-22.3h0c-14.7,2.3-24.7,16-22.3,30.7h0c2.3,14.7,16.3,25,31,22.7ZM92,253.3c18.3-2.3,31.3-19,29-37.3-2.3-18-18.3-30.7-36-29.3-18.3,2-31.7,18.3-30,36.7h0c2,18.7,18.7,32,37,30h0ZM723.7,253.3c18.3-2.3,31.3-19.3,29-37.7-2.3-17.7-18-30.7-36-29-18.3,2-31.7,18.3-30,36.7h0c2,18.7,18.7,32,37,30h0ZM54.3,343.7c20.3-1,36-18.3,35-39-1-20-18.3-35.7-38.7-34.7h-.3c-20.3,1-36,18.3-35,38.7h0c1.3,20.7,18.7,36.3,39,35ZM198.3,707c-2.7,12,5,23.7,17,26.3s23.7-5,26.3-17-5-23.7-17-26.3c-12-2.7-23.7,5-26.3,17ZM119,650c-2.3,14.7,7.7,28.3,22.3,30.7h0c14.7,2.3,28.3-7.7,30.7-22.3s-7.7-28.3-22.3-30.7c-14.3-2.3-28.3,7.7-30.7,22.3h0ZM55,576.3c-2,18.3,11.3,35,29.7,37h0c18.3,2,35-11.3,37-29.7h0c2-18.3-11.3-35-30-37h0c-18-2-34.7,11.3-36.7,29.7h0ZM15.3,491c-1,20.3,14.7,37.7,35,39h0c20.3,1,37.7-14.3,39-34.7v-.3c1-20.3-14.7-37.7-35-39-20.3-1-37.7,14.7-39,35ZM488.7,730.7c-9.3,2.3-14.7,12-12.3,21.3,2.3,9.3,12,14.7,21.3,12.3,9.3-2.3,14.7-12,12.3-21.3h0c-2.7-9.3-12-14.7-21.3-12.3h0ZM311.3,730.7c-9.3-2.3-18.7,3.3-21,12.7-2.3,9,3,18.3,12,20.7,9.3,2.7,19-2.7,21.7-11.7,2.7-9.3-2.7-19-11.7-21.7h-1ZM510,57c2.3-9.3-3-18.7-12.3-21.3h0c-9.3-2-18.7,3.7-20.7,13.3-2,8.7,3,17.7,11.7,20.3,9.3,2.3,18.7-3,21.3-12.3h0ZM323.7,48c-2.3-9.3-12-14.7-21.3-12.3h0c-9.3,2.7-14.7,12-12.3,21.3h0c2.3,9.3,12,14.7,21.3,12.3,9.3-2.7,15-12,12.3-21.3Z"/>
</svg>