<?xml version="1.0" encoding="UTF-8"?>
<svg id="Layer_1" xmlns="http://www.w3.org/2000/svg" version="1.1" viewBox="0 0 64 64">
  <!-- Generator: Adobe Illustrator 29.3.1, SVG Export Plug-In . SVG Version: 2.1.0 Build 151)  -->
  <defs>
    <style>
      .st0 {
        fill: #fff;
        fill-rule: evenodd;
      }
    </style>
  </defs>
  <path d="M10.2,20.4c-.3-2.8.3-5.1,1.8-6.9,1.5-1.8,3.6-2.9,6.4-3.2l12.1-1.3c7.2-.8,12.7,0,16.5,2.5,3.8,2.4,6,6,6.5,10.8.5,4.8-.8,8.9-4,12.1-3.2,3.2-8.4,5.2-15.6,6l-3,.3.4,3.8c.3,2.8-.3,5.1-1.8,6.9-1.5,1.8-3.6,2.9-6.4,3.2-2.8.3-5.1-.3-6.9-1.8-1.8-1.5-2.9-3.6-3.2-6.4l-2.7-26.1ZM28.8,21.7l.8,7.4,2.5-.3c1.2-.1,2.2-.6,2.8-1.3.6-.8.9-1.7.8-2.8-.1-1.1-.6-2-1.3-2.6-.8-.6-1.8-.9-3-.7l-2.5.3Z"/>
  <path class="st0" d="M52.1,37.1h0c-3.9,4-9.9,6.1-17.1,7h0c.4,3.7-.4,7.1-2.6,9.8-2.2,2.7-5.4,4.2-8.9,4.5-3.6.4-6.9-.4-9.7-2.6-2.7-2.2-4.2-5.4-4.5-8.9l-2.7-26.1c-.4-3.6.4-6.9,2.6-9.7,2.2-2.7,5.4-4.2,8.9-4.5l12.1-1.3c7.6-.8,14,0,18.9,3.1,4.9,3.1,7.6,7.7,8.2,13.6.6,5.9-1.1,11-5.1,15.1h0ZM31.3,44.6c.3,2.8-.3,5.1-1.8,6.9-1.5,1.8-3.6,2.9-6.4,3.2-2.8.3-5.1-.3-6.9-1.8-1.8-1.5-2.9-3.6-3.2-6.4l-2.7-26.1c-.3-2.8.3-5.1,1.8-6.9,1.5-1.8,3.6-2.9,6.4-3.2l12.1-1.3c7.2-.8,12.7,0,16.5,2.5,3.8,2.4,6,6,6.5,10.8.5,4.8-.8,8.9-4,12.1-3.2,3.2-8.4,5.2-15.6,6l-3,.3.4,3.8ZM33.3,28.6c-.4.1-.8.2-1.2.3l-2.5.3-.8-7.4,2.5-.3c.4,0,.9,0,1.3,0,.7,0,1.3.3,1.8.7.8.6,1.2,1.4,1.3,2.6.1,1.1-.1,2.1-.8,2.8-.4.5-.9.8-1.6,1Z"/>
  <path class="st0" d="M26.3,13.2c0-.3.2-.6.6-.7h1.2c.3-.2.6,0,.7.4,0,.3-.2.6-.6.7h-1.2c-.3.2-.6,0-.7-.4ZM30.3,12.8c0-.3.2-.6.6-.7,6.3-.7,11.2,0,14.5,2.1,3,1.9,4.6,4.7,5,8.5,0,.3-.2.6-.6.7-.3,0-.6-.2-.7-.6-.4-3.5-1.8-5.9-4.5-7.6h0c-2.9-1.8-7.4-2.5-13.7-1.9-.3,0-.6-.2-.7-.6ZM16.1,41.2c.3,0,.6.2.7.6v1.4c.2.3,0,.6-.4.7-.3,0-.6-.2-.7-.6v-1.4c-.2-.3,0-.6.4-.7ZM16.6,45.5c.3,0,.6.2.7.6.2,1.7.7,2.8,1.6,3.5.9.7,2.1,1,3.8.8,1.7-.2,2.8-.7,3.5-1.6.2-.3.6-.3.9,0,.3.2.3.6,0,.9-1,1.2-2.4,1.8-4.3,2-1.9.2-3.5-.1-4.7-1.1-1.2-1-1.8-2.4-2-4.3,0-.3.2-.6.6-.7Z"/>
</svg>