<?xml version="1.0" encoding="UTF-8"?>
<svg id="Layer_1" xmlns="http://www.w3.org/2000/svg" version="1.1" viewBox="0 0 64 64">
  <!-- Generator: Adobe Illustrator 29.3.0, SVG Export Plug-In . SVG Version: 2.1.0 Build 146)  -->
  <path d="M8.5,4h27.6c5.2,0,9.2,1.3,12.1,3.6,3.2,2.6,4.9,6.5,4.9,11.1s-2.2,8.8-6.6,10.8v.2c5.8,1.9,9.2,7.1,9.2,13.5s-2.3,10.7-6.1,13.5c-3.2,2.3-7.4,3.4-12.9,3.4H8.5V4h0ZM33.3,25.9c3,0,5.1-1.6,5.1-4.9s-2.3-4.8-5.2-4.8h-9.5v9.6h9.6ZM34.6,47.6c3.3,0,5.8-2,5.8-5.8s-2.7-5.8-5.9-5.8h-10.9v11.5h10.9Z"/>
</svg>