<?xml version="1.0" encoding="UTF-8"?>
<svg id="Layer_1" xmlns="http://www.w3.org/2000/svg" version="1.1" viewBox="0 0 800 800">
  <!-- Generator: Adobe Illustrator 29.3.0, SVG Export Plug-In . SVG Version: 2.1.0 Build 146)  -->
  <path d="M709.1,493.8h-3.3c-24.9,68.3-77.8,122.7-145.4,149.4v-149.4l81.5-72.7-81.5-72.7v-101.8c71.3.2,129.5-56.8,130.9-128C691.3,30.9,607.6,0,560.4,0c-12.2-.2-24.5,1.1-36.4,4v4.4h18.5c26.7-4.7,52.2,13.1,56.9,39.8.3,1.5.5,3,.6,4.5-1.1,26.3-23.3,46.7-49.6,45.6-.7,0-1.4,0-2-.1-81.5,0-177.4-66.2-281.8-66.2-81.7-4.4-151.6,57.7-157.1,139.3-2.5,51.1,32.5,96.4,82.5,106.9v-4c-15.3-9.8-24-27.3-22.5-45.5,2.5-33.8,31.9-59.3,65.8-56.8.4,0,.8,0,1.1.1,87.6,0,229.1,72.7,316.7,72.7h3.3v104.7l-81.5,72.7,81.5,72.7v151.6c-32.6,10.7-66.8,16-101.1,15.6-55.8,2.8-110.6-15.2-153.8-50.5l147.6-66.2V248.4l-206.5,90.9c19.7-58.3,63.2-105.6,119.6-130.2v-3.3C211.6,239.3,90.9,347.3,90.9,496s134.2,304,327.3,304,290.9-145.4,290.9-293.8v-12.4h0ZM295.3,606.2c-45.4-45.4-69.7-107.8-66.9-172-.5-29.3,3.6-58.5,12.4-86.5l68.4-31.3v282.5l-13.8,7.3Z"/>
</svg>