<?xml version="1.0" encoding="UTF-8"?>
<svg id="Layer_1" xmlns="http://www.w3.org/2000/svg" version="1.1" viewBox="0 0 64 64">
  <!-- Generator: Adobe Illustrator 29.3.1, SVG Export Plug-In . SVG Version: 2.1.0 Build 151)  -->
  <path d="M54.2,25.5c-1-7.6-3.5-12.5-5.5-15.2-.1-.2-.3-.4-.5-.6-2.1-1-4.1-2.3-6.2-3.2-7.2-3.2-21.5-4.6-28.3-.2-1.3.9-2.3,2.2-3.3,3.5-.5,1.5-.7,2.9-.7,2.9-1,3.3-.1,27-.4,37.4-.3,10.4,3.2,8.2,5.9,9.7,2.7,1.4,14-.4,18-.4s3.1-5.7,3.5-8.3c.3-2.7,10.6-4.6,12.9-6.8,2.3-2.2,5.6-11.1,4.6-18.7ZM43.5,39.4c-2.2,2.5-5.4,3.8-8.6,4.6-2.3.5-4.3,1.6-4.8,4-.5,1.9.1,4-.6,5.8-.8,1.7-2.5,1.9-4.4,1.9-1,0-2.1-.1-3-.1-.4,0-.7,0-1.1,0-1.1,0-2.2,0-3.1-.3-1.6-.5-2.7-1.6-2.6-3.7-.2-6.2,0-12.4.2-18.5v-.3c0-6,.3-11.9.5-17.9,0-1,.3-2.2.8-3,.7-1,1.9-1.3,3.1-1.4,0,0,0,0,0,0,2.7-.1,5.6-.2,8.3-.2h0c6.6,0,14.9,1.8,17.4,8.8,2.1,6.5,2.6,14.8-2.2,20.2ZM28.9,22.3c.4-.4.8-.7,1.3-.8,3.1-.5,4.4,3.8,3.9,7.2-.4,2.3-1.6,4.2-3.7,3.9-2.3-.3-2.7-3.5-2.8-5.2v-.2c0-1.3.2-3.6,1.3-4.8Z"/>
</svg>