<?xml version="1.0" encoding="UTF-8"?>
<svg id="Layer_1" xmlns="http://www.w3.org/2000/svg" version="1.1" viewBox="0 0 800 800">
  <!-- Generator: Adobe Illustrator 29.3.0, SVG Export Plug-In . SVG Version: 2.1.0 Build 146)  -->
  <path d="M800,512.2V230.7l-72.9-66.6-80.9,85.6v-61.1h-11.9v74.5l-19,19.8v-63.4l-60.3-55.5-72.1,73.7,8.7,8.7,18.2-18.2,23,20.6v69.8h-4c-34.9,0-56.3,23.8-56.3,56.3s2.4,24.6,4.8,30.1h7.9c3.2-16.3,17.5-27.9,34.1-27.8h13.5v126.1c-42,14.3-66.6,50.7-71.3,100.7l5.5,3.2c19-23,43.6-37.3,65.8-42.8v173.6l1.6.8,75.3-69,35.7,33.3,1.6-.8v-134.8c15.9,4.7,30.1,15.8,40.4,30.1l112.6-85.6ZM719.1,529.6c-19-19-42-29.3-72.2-33.3v-234.7l34.1-36.5,38.1,34.9v269.6ZM634.3,676.3l-19-17.4v-364.7l19-19v401.2ZM441.6,475.7v-241.1l-73-71.3-75.3,78.5-80-78.5-76.1,80.1v-26.2c0-67.4-42-56.3-42-99.9s17.4-41.2,38.8-51.5l-4.8-4.7c-65,23-99.9,57.1-99.9,94.3s25.4,34.9,25.4,73.7v99.1c-47.6,0-54.7,44.4-54.7,61.9s1.6,19.8,3.2,24.6h6.3c2.4-13.5,10.3-23,27-23h18.2v126.9l93.6,80.9,69-77.7,90.3,77.7,134-123.7ZM360,538.4l-64.2-54.7v-226l27.8-27.7,36.5,36.5v272ZM212.5,508.2l-19.8,23-55.5-47.6v-223.6l30.1-30.9,45.2,45.2v233.9Z"/>
</svg>